<?xml version="1.0" standalone="no"?>
<!DOCTYPE svg PUBLIC "-//W3C//DTD SVG 20010904//EN"
 "http://www.w3.org/TR/2001/REC-SVG-20010904/DTD/svg10.dtd">
<svg version="1.0" xmlns="http://www.w3.org/2000/svg"
 width="205.000000pt" height="300.000000pt" viewBox="0 0 205.000000 300.000000"
 preserveAspectRatio="xMidYMid meet">
<metadata>
Created by potrace 1.10, written by Peter Selinger 2001-2011
</metadata>
<g transform="translate(0.000000,300.000000) scale(0.100000,-0.100000)"
fill="#000000" stroke="none">
<path d="M1107 2944 c-4 -4 -7 -24 -7 -44 0 -20 -2 -39 -5 -41 -2 -3 -44 3
-92 13 -94 19 -178 16 -149 -5 14 -11 13 -23 -8 -112 -14 -55 -28 -117 -31
-138 -4 -20 -10 -39 -14 -41 -3 -2 -37 1 -75 6 -74 10 -119 -2 -109 -28 3 -7
-8 -67 -23 -134 l-28 -120 -41 0 c-22 1 -119 7 -215 14 -194 15 -223 11 -256
-38 -19 -30 -19 -64 -4 -239 5 -64 15 -170 20 -234 12 -137 26 -297 40 -473 6
-69 15 -174 21 -235 5 -60 12 -156 16 -211 6 -96 5 -102 -14 -108 -33 -11 -57
-66 -50 -117 4 -36 14 -52 50 -84 l44 -41 11 -124 c18 -192 27 -200 255 -200
l158 0 26 -30 c20 -24 33 -30 64 -30 28 0 47 8 72 30 l35 30 265 0 266 0 32
-40 c27 -34 38 -40 70 -40 40 0 69 26 69 62 0 16 10 18 88 18 106 0 145 18
162 77 6 21 44 306 85 633 162 1289 150 1184 135 1219 -16 40 -58 62 -129 67
-31 2 -114 9 -186 14 l-130 10 -42 42 c-45 44 -68 113 -43 128 8 5 -5 16 -38
31 l-50 23 -7 66 c-3 36 -13 103 -21 149 -8 46 -14 85 -14 87 0 2 7 1 15 -2 8
-4 15 -1 15 5 0 6 -6 11 -14 11 -7 0 -19 6 -25 14 -10 12 -42 24 -138 52 -7 1
-13 26 -15 56 -2 38 -7 54 -18 56 -9 1 -19 0 -23 -4z m-77 -94 c58 -10 140
-31 182 -45 l76 -26 12 -67 c20 -124 37 -247 34 -250 -4 -6 -50 70 -115 188
-32 58 -65 118 -74 134 -29 53 -38 19 -33 -122 l5 -129 -76 4 c-74 4 -212 21
-218 27 -3 2 41 204 51 237 2 8 7 26 10 42 8 32 9 33 146 7z m271 -375 c137
-208 327 -365 441 -365 36 0 38 -1 27 -21 -35 -67 -222 -205 -262 -195 -40 10
-150 87 -219 153 -108 105 -117 122 -133 262 -8 67 -17 201 -21 299 l-7 177
51 -100 c28 -55 83 -149 123 -210z m-556 85 c-3 -5 -16 -11 -28 -11 -17 -1
-18 -2 -4 -6 9 -2 17 -5 17 -7 0 -1 -17 -53 -39 -116 l-39 -115 -35 -3 -35 -3
25 103 c13 57 27 118 30 136 6 31 6 32 60 32 34 0 52 -4 48 -10z m199 -35 c93
-13 170 -25 171 -27 2 -2 8 -57 15 -123 6 -65 13 -131 16 -145 l6 -25 -20 24
c-31 39 -45 19 -38 -52 l7 -60 -28 7 c-15 3 -121 9 -235 13 -191 5 -208 7
-208 24 0 33 123 389 134 389 6 0 87 -11 180 -25z m448 -107 c14 -12 34 -68
24 -68 -2 0 -19 18 -36 40 -31 39 -24 56 12 28z m-1041 -149 c73 -6 138 -14
142 -18 8 -8 -2 -44 -57 -227 -14 -45 -22 -91 -19 -102 4 -18 -1 -21 -42 -27
-32 -5 -45 -11 -41 -21 3 -7 -1 -26 -9 -41 -15 -31 -122 -357 -136 -413 -18
-74 6 -88 127 -70 89 13 303 39 321 40 7 0 5 -17 -8 -51 -11 -28 -15 -48 -9
-44 5 3 10 14 10 23 0 11 3 13 8 6 4 -7 15 -8 27 -3 19 7 18 8 -4 8 -19 1 -22
5 -17 21 21 69 27 63 -55 55 -41 -3 -119 -13 -174 -21 -185 -28 -204 -29 -211
-10 -6 17 57 214 128 395 l40 103 41 -6 c23 -4 42 -8 43 -9 1 -1 -18 -60 -42
-131 -24 -71 -44 -135 -44 -142 0 -7 11 -21 24 -29 22 -15 32 -15 108 -1 46 8
116 20 157 26 72 10 74 10 97 -15 17 -18 24 -21 24 -11 0 8 -8 20 -17 25 -14
8 -15 10 -3 11 26 0 39 -15 33 -38 -6 -23 -18 -29 -28 -12 -3 5 -12 7 -20 3
-11 -3 -13 -1 -9 10 3 8 1 18 -5 21 -12 8 -25 -30 -15 -45 4 -7 3 -9 -4 -5
-13 8 -26 -29 -16 -45 4 -7 3 -9 -3 -6 -6 4 -16 -7 -22 -25 -13 -37 -9 -45 12
-23 22 21 29 19 22 -7 -5 -18 -4 -20 4 -8 6 9 11 10 11 3 0 -6 3 -20 6 -30 5
-15 4 -15 -5 -3 -9 13 -11 13 -11 -2 0 -26 17 -22 37 10 10 15 23 32 29 39 6
6 21 48 34 92 l23 81 88 0 88 0 -5 -57 c-14 -168 -13 -165 -42 -160 -15 2 -59
10 -99 17 -39 7 -78 10 -86 7 -8 -3 -17 -19 -20 -36 -4 -21 -11 -29 -20 -25
-8 3 -17 -2 -21 -11 -3 -9 -10 -13 -16 -10 -5 3 -10 2 -10 -3 0 -5 -12 -15
-27 -23 -58 -30 -228 -197 -334 -327 -50 -62 -59 -79 -59 -114 l0 -40 73 67
c210 196 298 235 650 294 191 32 240 50 246 92 6 43 266 399 291 399 21 0 8
-26 -55 -110 l-65 -87 17 -33 c15 -31 17 -32 24 -13 4 12 12 24 18 28 6 3 11
11 11 16 0 6 -5 7 -12 3 -6 -4 -8 -3 -4 4 8 14 25 10 115 -27 83 -35 97 -31
93 22 -2 30 -33 199 -48 259 -5 22 13 52 121 205 70 98 130 184 132 191 9 22
42 14 49 -12 3 -13 -24 -253 -60 -532 -36 -280 -79 -619 -97 -754 -17 -135
-32 -246 -34 -248 -2 -2 -13 2 -26 8 -15 9 -49 10 -111 5 -88 -6 -89 -6 -79
14 15 28 14 38 -9 61 -13 13 -33 20 -56 20 -28 0 -35 3 -30 15 21 55 48 163
60 238 l13 88 -61 50 c-33 27 -66 49 -72 49 -5 0 -18 -17 -28 -37 -17 -37 -17
-38 4 -55 30 -24 43 -23 29 3 -18 34 4 45 40 20 29 -21 49 -57 37 -68 -3 -4 2
-15 11 -26 16 -18 16 -20 2 -15 -14 5 -17 -4 -22 -50 -2 -31 -15 -88 -29 -126
-23 -69 -23 -69 -86 -97 l-62 -28 0 26 c0 46 61 278 81 305 19 27 19 27 -2 39
-17 8 -23 8 -29 -2 -7 -10 -52 -189 -118 -464 -4 -16 1 -15 29 11 75 69 198
115 252 95 30 -12 33 -22 15 -51 -23 -36 2 -45 116 -42 l104 3 26 -31 c30 -36
31 -48 11 -95 -30 -73 -96 -64 -179 23 -40 42 -58 53 -101 63 -57 13 -101 4
-119 -23 -19 -30 10 -48 78 -48 72 0 107 -15 120 -51 14 -41 0 -78 -36 -93
-40 -17 -79 -7 -131 35 -88 71 -206 39 -278 -76 -31 -49 -24 0 9 76 34 75 53
144 128 458 50 207 63 247 112 343 60 121 87 234 65 280 -10 20 -12 17 -12
-28 -1 -71 -25 -145 -81 -249 -49 -94 -74 -177 -130 -431 -28 -131 -79 -307
-99 -342 -6 -11 -12 0 -20 39 -11 54 -11 57 33 160 25 57 52 131 60 164 16 63
36 208 36 260 l0 30 -79 -3 c-44 -2 -87 0 -96 5 -20 11 -193 -17 -316 -52 -96
-27 -168 -63 -282 -143 -43 -30 -80 -52 -83 -49 -9 9 121 100 205 145 106 57
196 83 372 111 54 9 275 73 285 83 1 2 -36 4 -83 5 -56 1 -89 6 -94 14 -6 10
-30 8 -114 -5 -261 -43 -363 -93 -560 -276 -61 -56 -76 -65 -108 -65 -43 0
-39 -19 -62 270 -33 403 -86 983 -95 1040 -15 90 -12 123 10 145 24 24 55 25
251 9z m286 -13 c1 -1 -4 -20 -12 -41 -8 -22 -14 -47 -15 -56 0 -16 -38 -29
-85 -29 l-22 0 25 71 25 70 41 -7 c23 -3 42 -7 43 -8z m635 -222 c91 -87 249
-184 300 -184 26 0 23 -12 -19 -74 -25 -36 -45 -55 -58 -56 -31 0 -62 -26 -68
-58 -3 -15 -27 -56 -52 -91 -36 -49 -44 -66 -35 -76 9 -11 7 -21 -10 -45 -12
-16 -25 -30 -29 -30 -5 0 -15 24 -24 53 -8 28 -40 131 -70 227 -52 167 -78
295 -93 460 l-7 75 61 -80 c33 -44 80 -99 104 -121z m598 145 c0 -10 -114
-178 -273 -402 -38 -53 -73 -95 -77 -92 -5 3 34 67 86 143 51 75 128 188 171
250 71 104 93 128 93 101z m-90 -29 c0 -7 -14 -8 -37 -4 -52 9 -54 14 -5 14
23 0 42 -5 42 -10z m-1085 -35 c62 -7 354 -51 390 -60 18 -4 23 -19 38 -107 9
-57 35 -158 57 -226 22 -68 40 -125 40 -126 0 -2 -30 3 -67 10 -131 25 -405
12 -641 -32 -88 -16 -122 -12 -122 12 0 27 71 231 181 522 7 19 14 23 37 18
15 -3 54 -8 87 -11z m-153 -27 c-12 -50 -68 -178 -78 -178 -24 0 -23 18 6 113
29 91 32 96 53 88 12 -5 21 -15 19 -23z m393 22 c7 -12 -21 -12 -85 -1 l-45 8
62 2 c34 0 65 -3 68 -9z m96 0 c5 0 9 -7 9 -15 0 -8 -4 -15 -9 -15 -21 0 -41
13 -41 27 0 10 6 13 16 9 9 -3 20 -6 25 -6z m598 -514 c17 -82 30 -150 28
-152 -2 -2 -37 11 -79 28 l-77 32 25 29 c14 16 31 42 40 58 13 26 13 32 -1 58
-14 28 -13 33 6 66 12 20 23 35 24 33 2 -2 17 -70 34 -152z m-464 -9 l60 -13
26 -76 26 -77 -26 -5 c-14 -3 -62 -8 -105 -12 -72 -6 -79 -5 -73 10 4 10 7 56
7 102 0 94 -6 89 85 71z m-403 -127 c18 0 18 -1 4 -16 -9 -8 -16 -20 -16 -25
0 -5 -5 -9 -11 -9 -5 0 -7 5 -4 10 3 6 1 10 -4 10 -6 0 -11 5 -11 11 0 5 5 7
11 3 8 -4 9 1 5 17 -3 13 -3 18 0 12 3 -7 15 -13 26 -13z m108 -77 c21 -6 15
-9 -35 -19 -33 -7 -61 -11 -63 -10 -1 2 0 11 4 20 7 17 49 21 94 9z m390 -32
c0 -5 -35 -12 -77 -15 -248 -19 -364 -43 -489 -101 -95 -44 -167 -100 -305
-238 -62 -61 -94 -89 -72 -62 64 79 202 213 269 261 126 90 314 144 544 157
119 7 130 7 130 -2z m-70 -70 c0 -26 -32 -37 -215 -70 -215 -39 -283 -56 -346
-84 -88 -39 -97 -40 -54 -2 105 93 349 167 573 174 35 1 42 -2 42 -18z m-190
-176 c-9 -8 -53 -22 -100 -30 -110 -21 -222 -51 -274 -74 -22 -10 -52 -22 -66
-25 l-25 -7 25 21 c38 32 88 56 167 80 82 25 200 48 253 49 30 1 33 -1 20 -14z
m110 -109 l35 -1 0 -90 c0 -49 -7 -112 -14 -140 -22 -79 -72 -195 -84 -195 -7
0 -23 16 -36 35 -69 102 -233 219 -324 231 -55 8 -84 -7 -103 -52 -9 -21 -21
-34 -32 -33 -29 1 -116 35 -119 46 -5 13 99 89 173 127 86 44 313 88 409 78
33 -3 76 -6 95 -6z m-339 -233 c90 -45 201 -152 241 -233 52 -105 78 -270 43
-270 -9 0 -20 12 -26 27 -19 51 -61 95 -113 119 -71 33 -129 31 -208 -6 -77
-37 -155 -41 -205 -10 -56 34 -56 102 0 144 36 26 129 28 199 3 52 -18 90 -11
102 19 16 42 -83 86 -196 85 -54 0 -75 -6 -156 -47 -72 -37 -109 -49 -154 -52
-113 -8 -198 48 -198 132 0 50 18 78 64 100 56 27 129 20 251 -23 122 -42 192
-56 215 -41 13 8 13 12 -1 37 -9 15 -14 34 -12 41 9 24 79 13 154 -25z m-532
-345 c20 -155 9 -148 206 -148 103 0 165 -4 165 -10 0 -6 -61 -10 -164 -10
-207 0 -202 -3 -221 135 -17 116 -18 148 -7 141 5 -3 14 -51 21 -108z m196 95
c-19 -42 -16 -78 7 -113 30 -45 80 -70 141 -70 35 0 47 -4 45 -12 -3 -10 -44
-14 -149 -16 -79 -1 -154 0 -166 3 -17 4 -24 17 -33 60 -6 30 -10 71 -8 92 3
37 5 38 48 45 25 3 56 11 70 16 39 17 53 15 45 -5z m455 -144 c9 -6 0 -7 -25
-3 -22 4 -47 11 -55 15 -9 6 0 7 25 3 22 -4 47 -11 55 -15z m744 -4 c37 -16
45 -32 24 -53 -13 -13 -88 -17 -88 -5 0 7 23 73 26 73 1 0 18 -7 38 -15z m92
-16 c-3 -17 -6 -37 -6 -43 0 -7 -9 -22 -20 -34 -19 -20 -31 -22 -115 -22 -52
0 -97 4 -100 10 -4 6 30 10 94 10 111 0 113 1 126 73 4 20 12 37 17 37 6 0 8
-13 4 -31z m-426 -9 c0 -11 -63 -40 -86 -40 -34 0 -30 18 9 35 31 13 77 17 77
5z m-425 -21 c25 -6 50 -17 56 -25 9 -11 5 -14 -22 -14 -43 -1 -105 -29 -151
-69 -40 -35 -81 -40 -110 -14 -38 35 -20 78 46 109 56 26 113 30 181 13z m580
-65 c30 -28 32 -57 5 -84 -28 -28 -44 -25 -75 16 -33 43 -81 74 -114 74 -40 0
-8 23 41 30 55 8 111 -6 143 -36z m-430 6 c4 -6 -12 -10 -40 -10 -28 0 -44 4
-40 10 3 6 21 10 40 10 19 0 37 -4 40 -10z m205 0 c0 -6 -27 -10 -61 -10 -37
0 -58 4 -54 10 3 6 31 10 61 10 30 0 54 -4 54 -10z"/>
<path d="M1374 1439 c-7 -8 -15 -28 -19 -46 -8 -41 -74 -143 -110 -171 -31
-24 -73 -37 -155 -48 -45 -6 -50 -9 -30 -15 14 -4 55 -7 91 -8 76 -1 86 6 164
124 44 65 52 60 17 -10 -61 -121 -107 -161 -227 -196 l-60 -18 68 0 c38 -1 78
4 89 10 52 28 139 162 169 261 22 71 23 143 3 117z"/>
<path d="M663 1375 c-6 -20 -7 -35 -2 -35 5 0 9 9 9 21 0 15 5 19 15 15 8 -3
15 -1 15 4 0 6 -5 10 -11 10 -5 0 -7 5 -4 10 3 6 2 10 -3 10 -5 0 -13 -16 -19
-35z"/>
<path d="M1438 1375 c-3 -6 -7 -29 -9 -52 -3 -39 0 -43 44 -77 26 -20 47 -34
47 -31 0 14 -32 81 -46 96 -8 9 -19 30 -23 45 -4 16 -10 24 -13 19z"/>
<path d="M1396 1207 l-28 -52 24 -15 c13 -8 42 -32 65 -53 l42 -38 6 48 c3 26
8 58 11 70 3 16 -6 29 -34 50 -58 46 -57 46 -86 -10z m72 -19 c14 -14 16 -44
3 -52 -15 -10 -55 29 -48 47 7 20 28 22 45 5z"/>
</g>
</svg>
